{
	"asset":{
		"generator":"Khronos glTF Blender I/O v5.0.21",
		"version":"2.0"
	},
	"scene":0,
	"scenes":[
		{
			"name":"Scene",
			"nodes":[
				0,
				1,
				2,
				3,
				4,
				5,
				6,
				7,
				8,
				9,
				10,
				11,
				12,
				13,
				14,
				15,
				16,
				17,
				18,
				19
			]
		}
	],
	"nodes":[
		{
			"mesh":0,
			"name":"TargetDuckYellow.005",
			"rotation":[
				0,
				-0.7071068286895752,
				0,
				0.7071068286895752
			]
		},
		{
			"mesh":1,
			"name":"TargetDuckYellow.006",
			"rotation":[
				0,
				-0.7071068286895752,
				0,
				0.7071068286895752
			]
		},
		{
			"mesh":2,
			"name":"TargetDuckBrown.005",
			"rotation":[
				0,
				-0.7071068286895752,
				0,
				0.7071068286895752
			]
		},
		{
			"mesh":3,
			"name":"TargetDuckBrown.006",
			"rotation":[
				0,
				-0.7071068286895752,
				0,
				0.7071068286895752
			]
		},
		{
			"mesh":4,
			"name":"TargetDuckBeige.005",
			"rotation":[
				0,
				-0.7071068286895752,
				0,
				0.7071068286895752
			]
		},
		{
			"mesh":5,
			"name":"TargetDuckBeige.006",
			"rotation":[
				0,
				-0.7071068286895752,
				0,
				0.7071068286895752
			]
		},
		{
			"mesh":6,
			"name":"StandWood.003",
			"rotation":[
				0,
				-0.7071068286895752,
				0,
				0.7071068286895752
			]
		},
		{
			"mesh":7,
			"name":"StandMetal.001",
			"rotation":[
				0,
				-0.7071068286895752,
				0,
				0.7071068286895752
			]
		},
		{
			"mesh":8,
			"name":"StandWood.004",
			"rotation":[
				0,
				-0.7071068286895752,
				0,
				0.7071068286895752
			]
		},
		{
			"mesh":9,
			"name":"StandWoodHit.002",
			"rotation":[
				0,
				-0.7071068286895752,
				0,
				0.7071068286895752
			]
		},
		{
			"mesh":10,
			"name":"StandMetalHit.002",
			"rotation":[
				0,
				-0.7071068286895752,
				0,
				0.7071068286895752
			]
		},
		{
			"mesh":11,
			"name":"DecalHit.005",
			"rotation":[
				0,
				-0.7071068286895752,
				0,
				0.7071068286895752
			]
		},
		{
			"mesh":12,
			"name":"DecalHit.006",
			"rotation":[
				0,
				-0.7071068286895752,
				0,
				0.7071068286895752
			]
		},
		{
			"mesh":13,
			"name":"DecalHit.007",
			"rotation":[
				0,
				-0.7071068286895752,
				0,
				0.7071068286895752
			]
		},
		{
			"mesh":14,
			"name":"DecalHit.008",
			"rotation":[
				0,
				-0.7071068286895752,
				0,
				0.7071068286895752
			]
		},
		{
			"mesh":15,
			"name":"waves.002",
			"rotation":[
				0.7071068286895752,
				0,
				0,
				0.7071068286895752
			]
		},
		{
			"mesh":16,
			"name":"waves.001",
			"rotation":[
				0,
				-0.7071068286895752,
				0.7071068286895752,
				4.636293837734229e-08
			]
		},
		{
			"mesh":17,
			"name":"Tree.001",
			"rotation":[
				0,
				-0.7071068286895752,
				0,
				0.7071068286895752
			]
		},
		{
			"mesh":18,
			"name":"Tree.002",
			"rotation":[
				0,
				-0.7071068286895752,
				0,
				0.7071068286895752
			]
		},
		{
			"mesh":19,
			"name":"plusPoints.001",
			"rotation":[
				0,
				-0.7071068286895752,
				0,
				0.7071068286895752
			]
		}
	],
	"materials":[
		{
			"alphaMode":"BLEND",
			"doubleSided":true,
			"name":"M_Ducks",
			"pbrMetallicRoughness":{
				"baseColorTexture":{
					"index":0
				},
				"metallicFactor":0,
				"roughnessFactor":0.8999999761581421
			}
		},
		{
			"alphaMode":"BLEND",
			"doubleSided":true,
			"name":"M_Stall",
			"pbrMetallicRoughness":{
				"baseColorTexture":{
					"index":1
				},
				"metallicFactor":0
			}
		},
		{
			"alphaMode":"BLEND",
			"doubleSided":true,
			"name":"M_Hud",
			"pbrMetallicRoughness":{
				"baseColorTexture":{
					"index":2
				},
				"metallicFactor":0,
				"roughnessFactor":0.5
			}
		}
	],
	"meshes":[
		{
			"name":"Plane.078",
			"primitives":[
				{
					"attributes":{
						"POSITION":0,
						"NORMAL":1,
						"TEXCOORD_0":2
					},
					"indices":3,
					"material":0
				}
			]
		},
		{
			"name":"Plane.079",
			"primitives":[
				{
					"attributes":{
						"POSITION":4,
						"NORMAL":5,
						"TEXCOORD_0":6
					},
					"indices":3,
					"material":0
				}
			]
		},
		{
			"name":"Plane.080",
			"primitives":[
				{
					"attributes":{
						"POSITION":7,
						"NORMAL":8,
						"TEXCOORD_0":9
					},
					"indices":3,
					"material":0
				}
			]
		},
		{
			"name":"Plane.081",
			"primitives":[
				{
					"attributes":{
						"POSITION":10,
						"NORMAL":11,
						"TEXCOORD_0":12
					},
					"indices":3,
					"material":0
				}
			]
		},
		{
			"name":"Plane.082",
			"primitives":[
				{
					"attributes":{
						"POSITION":13,
						"NORMAL":14,
						"TEXCOORD_0":15
					},
					"indices":3,
					"material":0
				}
			]
		},
		{
			"name":"Plane.083",
			"primitives":[
				{
					"attributes":{
						"POSITION":16,
						"NORMAL":17,
						"TEXCOORD_0":18
					},
					"indices":3,
					"material":0
				}
			]
		},
		{
			"name":"Plane.089",
			"primitives":[
				{
					"attributes":{
						"POSITION":19,
						"NORMAL":20,
						"TEXCOORD_0":21
					},
					"indices":22,
					"material":0
				}
			]
		},
		{
			"name":"Plane.090",
			"primitives":[
				{
					"attributes":{
						"POSITION":23,
						"NORMAL":24,
						"TEXCOORD_0":25
					},
					"indices":22,
					"material":0
				}
			]
		},
		{
			"name":"Plane.091",
			"primitives":[
				{
					"attributes":{
						"POSITION":26,
						"NORMAL":27,
						"TEXCOORD_0":28
					},
					"indices":22,
					"material":0
				}
			]
		},
		{
			"name":"Plane.092",
			"primitives":[
				{
					"attributes":{
						"POSITION":29,
						"NORMAL":30,
						"TEXCOORD_0":31
					},
					"indices":22,
					"material":0
				}
			]
		},
		{
			"name":"Plane.093",
			"primitives":[
				{
					"attributes":{
						"POSITION":32,
						"NORMAL":33,
						"TEXCOORD_0":34
					},
					"indices":22,
					"material":0
				}
			]
		},
		{
			"name":"Plane.094",
			"primitives":[
				{
					"attributes":{
						"POSITION":35,
						"NORMAL":36,
						"TEXCOORD_0":37
					},
					"indices":22,
					"material":0
				}
			]
		},
		{
			"name":"Plane.095",
			"primitives":[
				{
					"attributes":{
						"POSITION":38,
						"NORMAL":39,
						"TEXCOORD_0":40
					},
					"indices":22,
					"material":0
				}
			]
		},
		{
			"name":"Plane.096",
			"primitives":[
				{
					"attributes":{
						"POSITION":41,
						"NORMAL":42,
						"TEXCOORD_0":43
					},
					"indices":22,
					"material":0
				}
			]
		},
		{
			"name":"Plane.097",
			"primitives":[
				{
					"attributes":{
						"POSITION":44,
						"NORMAL":45,
						"TEXCOORD_0":46
					},
					"indices":22,
					"material":0
				}
			]
		},
		{
			"name":"Plane.099",
			"primitives":[
				{
					"attributes":{
						"POSITION":47,
						"NORMAL":48,
						"TEXCOORD_0":49
					},
					"indices":50,
					"material":1
				}
			]
		},
		{
			"name":"Plane.100",
			"primitives":[
				{
					"attributes":{
						"POSITION":51,
						"NORMAL":52,
						"TEXCOORD_0":53
					},
					"indices":54,
					"material":1
				}
			]
		},
		{
			"name":"Plane.006",
			"primitives":[
				{
					"attributes":{
						"POSITION":55,
						"NORMAL":56,
						"TEXCOORD_0":57
					},
					"indices":58,
					"material":1
				}
			]
		},
		{
			"name":"Plane.013",
			"primitives":[
				{
					"attributes":{
						"POSITION":59,
						"NORMAL":60,
						"TEXCOORD_0":61
					},
					"indices":62,
					"material":1
				}
			]
		},
		{
			"name":"Plane.015",
			"primitives":[
				{
					"attributes":{
						"POSITION":63,
						"NORMAL":64,
						"TEXCOORD_0":65
					},
					"indices":66,
					"material":2
				}
			]
		}
	],
	"textures":[
		{
			"sampler":0,
			"source":0
		},
		{
			"sampler":0,
			"source":1
		},
		{
			"sampler":0,
			"source":2
		}
	],
	"images":[
		{
			"mimeType":"image/png",
			"name":"spritesheet_objects",
			"uri":"spritesheet_objects.png"
		},
		{
			"mimeType":"image/png",
			"name":"spritesheet_stall",
			"uri":"spritesheet_stall.png"
		},
		{
			"mimeType":"image/png",
			"name":"spritesheet_hud",
			"uri":"spritesheet_hud.png"
		}
	],
	"accessors":[
		{
			"bufferView":0,
			"componentType":5126,
			"count":24,
			"max":[
				0.04849640652537346,
				0.9735875129699707,
				1.0375981330871582
			],
			"min":[
				-0.048496346920728683,
				-0.9781466126441956,
				-0.9938197135925293
			],
			"type":"VEC3"
		},
		{
			"bufferView":1,
			"componentType":5126,
			"count":24,
			"type":"VEC3"
		},
		{
			"bufferView":2,
			"componentType":5126,
			"count":24,
			"type":"VEC2"
		},
		{
			"bufferView":3,
			"componentType":5123,
			"count":36,
			"type":"SCALAR"
		},
		{
			"bufferView":4,
			"componentType":5126,
			"count":24,
			"max":[
				0.04849640652537346,
				0.9735875129699707,
				1.0375981330871582
			],
			"min":[
				-0.048496346920728683,
				-0.9781466126441956,
				-0.9938197135925293
			],
			"type":"VEC3"
		},
		{
			"bufferView":5,
			"componentType":5126,
			"count":24,
			"type":"VEC3"
		},
		{
			"bufferView":6,
			"componentType":5126,
			"count":24,
			"type":"VEC2"
		},
		{
			"bufferView":7,
			"componentType":5126,
			"count":24,
			"max":[
				0.04849640652537346,
				0.9735875129699707,
				1.0375981330871582
			],
			"min":[
				-0.048496346920728683,
				-0.9781466126441956,
				-0.9938197135925293
			],
			"type":"VEC3"
		},
		{
			"bufferView":8,
			"componentType":5126,
			"count":24,
			"type":"VEC3"
		},
		{
			"bufferView":9,
			"componentType":5126,
			"count":24,
			"type":"VEC2"
		},
		{
			"bufferView":10,
			"componentType":5126,
			"count":24,
			"max":[
				0.04849640652537346,
				0.9735875129699707,
				1.0375981330871582
			],
			"min":[
				-0.048496346920728683,
				-0.9781466126441956,
				-0.9938197135925293
			],
			"type":"VEC3"
		},
		{
			"bufferView":11,
			"componentType":5126,
			"count":24,
			"type":"VEC3"
		},
		{
			"bufferView":12,
			"componentType":5126,
			"count":24,
			"type":"VEC2"
		},
		{
			"bufferView":13,
			"componentType":5126,
			"count":24,
			"max":[
				0.04849640652537346,
				0.9735875129699707,
				1.0375981330871582
			],
			"min":[
				-0.048496346920728683,
				-0.9781466126441956,
				-0.9938197135925293
			],
			"type":"VEC3"
		},
		{
			"bufferView":14,
			"componentType":5126,
			"count":24,
			"type":"VEC3"
		},
		{
			"bufferView":15,
			"componentType":5126,
			"count":24,
			"type":"VEC2"
		},
		{
			"bufferView":16,
			"componentType":5126,
			"count":24,
			"max":[
				0.04849640652537346,
				0.9735875129699707,
				1.0375981330871582
			],
			"min":[
				-0.048496346920728683,
				-0.9781466126441956,
				-0.9938197135925293
			],
			"type":"VEC3"
		},
		{
			"bufferView":17,
			"componentType":5126,
			"count":24,
			"type":"VEC3"
		},
		{
			"bufferView":18,
			"componentType":5126,
			"count":24,
			"type":"VEC2"
		},
		{
			"bufferView":19,
			"componentType":5126,
			"count":4,
			"max":[
				1.1920928955078125e-07,
				1.1507631540298462,
				0.33152568340301514
			],
			"min":[
				-1.1920928955078125e-07,
				-1.1507631540298462,
				-0.33152568340301514
			],
			"type":"VEC3"
		},
		{
			"bufferView":20,
			"componentType":5126,
			"count":4,
			"type":"VEC3"
		},
		{
			"bufferView":21,
			"componentType":5126,
			"count":4,
			"type":"VEC2"
		},
		{
			"bufferView":22,
			"componentType":5123,
			"count":6,
			"type":"SCALAR"
		},
		{
			"bufferView":23,
			"componentType":5126,
			"count":4,
			"max":[
				1.1920928955078125e-07,
				1.1507631540298462,
				0.33152568340301514
			],
			"min":[
				-1.1920928955078125e-07,
				-1.1507631540298462,
				-0.33152568340301514
			],
			"type":"VEC3"
		},
		{
			"bufferView":24,
			"componentType":5126,
			"count":4,
			"type":"VEC3"
		},
		{
			"bufferView":25,
			"componentType":5126,
			"count":4,
			"type":"VEC2"
		},
		{
			"bufferView":26,
			"componentType":5126,
			"count":4,
			"max":[
				1.1920928955078125e-07,
				1.1366215944290161,
				0.33152568340301514
			],
			"min":[
				-1.1920928955078125e-07,
				-1.1649047136306763,
				-0.33152568340301514
			],
			"type":"VEC3"
		},
		{
			"bufferView":27,
			"componentType":5126,
			"count":4,
			"type":"VEC3"
		},
		{
			"bufferView":28,
			"componentType":5126,
			"count":4,
			"type":"VEC2"
		},
		{
			"bufferView":29,
			"componentType":5126,
			"count":4,
			"max":[
				1.1920928955078125e-07,
				0.5780173540115356,
				0.19891631603240967
			],
			"min":[
				-1.1920928955078125e-07,
				-0.5780173540115356,
				-0.19891631603240967
			],
			"type":"VEC3"
		},
		{
			"bufferView":30,
			"componentType":5126,
			"count":4,
			"type":"VEC3"
		},
		{
			"bufferView":31,
			"componentType":5126,
			"count":4,
			"type":"VEC2"
		},
		{
			"bufferView":32,
			"componentType":5126,
			"count":4,
			"max":[
				1.1920928955078125e-07,
				0.5780173540115356,
				0.19891631603240967
			],
			"min":[
				-1.1920928955078125e-07,
				-0.5780173540115356,
				-0.19891631603240967
			],
			"type":"VEC3"
		},
		{
			"bufferView":33,
			"componentType":5126,
			"count":4,
			"type":"VEC3"
		},
		{
			"bufferView":34,
			"componentType":5126,
			"count":4,
			"type":"VEC2"
		},
		{
			"bufferView":35,
			"componentType":5126,
			"count":4,
			"max":[
				2.52940424161352e-08,
				0.21218180656433105,
				0.21218180656433105
			],
			"min":[
				-2.52940424161352e-08,
				-0.21218180656433105,
				-0.21218180656433105
			],
			"type":"VEC3"
		},
		{
			"bufferView":36,
			"componentType":5126,
			"count":4,
			"type":"VEC3"
		},
		{
			"bufferView":37,
			"componentType":5126,
			"count":4,
			"type":"VEC2"
		},
		{
			"bufferView":38,
			"componentType":5126,
			"count":4,
			"max":[
				2.52940424161352e-08,
				0.21218180656433105,
				0.21218180656433105
			],
			"min":[
				-2.52940424161352e-08,
				-0.21218180656433105,
				-0.21218180656433105
			],
			"type":"VEC3"
		},
		{
			"bufferView":39,
			"componentType":5126,
			"count":4,
			"type":"VEC3"
		},
		{
			"bufferView":40,
			"componentType":5126,
			"count":4,
			"type":"VEC2"
		},
		{
			"bufferView":41,
			"componentType":5126,
			"count":4,
			"max":[
				2.52940424161352e-08,
				0.21218180656433105,
				0.21218180656433105
			],
			"min":[
				-2.52940424161352e-08,
				-0.21218180656433105,
				-0.21218180656433105
			],
			"type":"VEC3"
		},
		{
			"bufferView":42,
			"componentType":5126,
			"count":4,
			"type":"VEC3"
		},
		{
			"bufferView":43,
			"componentType":5126,
			"count":4,
			"type":"VEC2"
		},
		{
			"bufferView":44,
			"componentType":5126,
			"count":4,
			"max":[
				2.52940424161352e-08,
				0.21218180656433105,
				0.21218180656433105
			],
			"min":[
				-2.52940424161352e-08,
				-0.21218180656433105,
				-0.21218180656433105
			],
			"type":"VEC3"
		},
		{
			"bufferView":45,
			"componentType":5126,
			"count":4,
			"type":"VEC3"
		},
		{
			"bufferView":46,
			"componentType":5126,
			"count":4,
			"type":"VEC2"
		},
		{
			"bufferView":47,
			"componentType":5126,
			"count":80,
			"max":[
				26.005107879638672,
				1.4564740524747322e-08,
				1
			],
			"min":[
				-0.6667976379394531,
				-2.6468054414863218e-08,
				-1.2723160982131958
			],
			"type":"VEC3"
		},
		{
			"bufferView":48,
			"componentType":5126,
			"count":80,
			"type":"VEC3"
		},
		{
			"bufferView":49,
			"componentType":5126,
			"count":80,
			"type":"VEC2"
		},
		{
			"bufferView":50,
			"componentType":5123,
			"count":120,
			"type":"SCALAR"
		},
		{
			"bufferView":51,
			"componentType":5126,
			"count":80,
			"max":[
				26.005107879638672,
				1.4564740524747322e-08,
				1
			],
			"min":[
				-0.6667976379394531,
				-2.6468054414863218e-08,
				-1.2723160982131958
			],
			"type":"VEC3"
		},
		{
			"bufferView":52,
			"componentType":5126,
			"count":80,
			"type":"VEC3"
		},
		{
			"bufferView":53,
			"componentType":5126,
			"count":80,
			"type":"VEC2"
		},
		{
			"bufferView":54,
			"componentType":5123,
			"count":120,
			"type":"SCALAR"
		},
		{
			"bufferView":55,
			"componentType":5126,
			"count":39,
			"max":[
				0.050488922744989395,
				1.1471712589263916,
				0.7231859564781189
			],
			"min":[
				-0.05048889294266701,
				-1.4101229906082153,
				-0.7231859564781189
			],
			"type":"VEC3"
		},
		{
			"bufferView":56,
			"componentType":5126,
			"count":39,
			"type":"VEC3"
		},
		{
			"bufferView":57,
			"componentType":5126,
			"count":39,
			"type":"VEC2"
		},
		{
			"bufferView":58,
			"componentType":5123,
			"count":60,
			"type":"SCALAR"
		},
		{
			"bufferView":59,
			"componentType":5126,
			"count":39,
			"max":[
				0.05048893392086029,
				1.164448857307434,
				0.5436918139457703
			],
			"min":[
				-0.05048888921737671,
				-1.3928455114364624,
				-0.6146736741065979
			],
			"type":"VEC3"
		},
		{
			"bufferView":60,
			"componentType":5126,
			"count":39,
			"type":"VEC3"
		},
		{
			"bufferView":61,
			"componentType":5126,
			"count":39,
			"type":"VEC2"
		},
		{
			"bufferView":62,
			"componentType":5123,
			"count":60,
			"type":"SCALAR"
		},
		{
			"bufferView":63,
			"componentType":5126,
			"count":12,
			"max":[
				0.04849693551659584,
				0.5679174661636353,
				1.3245429992675781
			],
			"min":[
				0.04849259555339813,
				-0.5724763870239258,
				-0.9931550621986389
			],
			"type":"VEC3"
		},
		{
			"bufferView":64,
			"componentType":5126,
			"count":12,
			"type":"VEC3"
		},
		{
			"bufferView":65,
			"componentType":5126,
			"count":12,
			"type":"VEC2"
		},
		{
			"bufferView":66,
			"componentType":5123,
			"count":18,
			"type":"SCALAR"
		}
	],
	"bufferViews":[
		{
			"buffer":0,
			"byteLength":288,
			"byteOffset":0,
			"target":34962
		},
		{
			"buffer":0,
			"byteLength":288,
			"byteOffset":288,
			"target":34962
		},
		{
			"buffer":0,
			"byteLength":192,
			"byteOffset":576,
			"target":34962
		},
		{
			"buffer":0,
			"byteLength":72,
			"byteOffset":768,
			"target":34963
		},
		{
			"buffer":0,
			"byteLength":288,
			"byteOffset":840,
			"target":34962
		},
		{
			"buffer":0,
			"byteLength":288,
			"byteOffset":1128,
			"target":34962
		},
		{
			"buffer":0,
			"byteLength":192,
			"byteOffset":1416,
			"target":34962
		},
		{
			"buffer":0,
			"byteLength":288,
			"byteOffset":1608,
			"target":34962
		},
		{
			"buffer":0,
			"byteLength":288,
			"byteOffset":1896,
			"target":34962
		},
		{
			"buffer":0,
			"byteLength":192,
			"byteOffset":2184,
			"target":34962
		},
		{
			"buffer":0,
			"byteLength":288,
			"byteOffset":2376,
			"target":34962
		},
		{
			"buffer":0,
			"byteLength":288,
			"byteOffset":2664,
			"target":34962
		},
		{
			"buffer":0,
			"byteLength":192,
			"byteOffset":2952,
			"target":34962
		},
		{
			"buffer":0,
			"byteLength":288,
			"byteOffset":3144,
			"target":34962
		},
		{
			"buffer":0,
			"byteLength":288,
			"byteOffset":3432,
			"target":34962
		},
		{
			"buffer":0,
			"byteLength":192,
			"byteOffset":3720,
			"target":34962
		},
		{
			"buffer":0,
			"byteLength":288,
			"byteOffset":3912,
			"target":34962
		},
		{
			"buffer":0,
			"byteLength":288,
			"byteOffset":4200,
			"target":34962
		},
		{
			"buffer":0,
			"byteLength":192,
			"byteOffset":4488,
			"target":34962
		},
		{
			"buffer":0,
			"byteLength":48,
			"byteOffset":4680,
			"target":34962
		},
		{
			"buffer":0,
			"byteLength":48,
			"byteOffset":4728,
			"target":34962
		},
		{
			"buffer":0,
			"byteLength":32,
			"byteOffset":4776,
			"target":34962
		},
		{
			"buffer":0,
			"byteLength":12,
			"byteOffset":4808,
			"target":34963
		},
		{
			"buffer":0,
			"byteLength":48,
			"byteOffset":4820,
			"target":34962
		},
		{
			"buffer":0,
			"byteLength":48,
			"byteOffset":4868,
			"target":34962
		},
		{
			"buffer":0,
			"byteLength":32,
			"byteOffset":4916,
			"target":34962
		},
		{
			"buffer":0,
			"byteLength":48,
			"byteOffset":4948,
			"target":34962
		},
		{
			"buffer":0,
			"byteLength":48,
			"byteOffset":4996,
			"target":34962
		},
		{
			"buffer":0,
			"byteLength":32,
			"byteOffset":5044,
			"target":34962
		},
		{
			"buffer":0,
			"byteLength":48,
			"byteOffset":5076,
			"target":34962
		},
		{
			"buffer":0,
			"byteLength":48,
			"byteOffset":5124,
			"target":34962
		},
		{
			"buffer":0,
			"byteLength":32,
			"byteOffset":5172,
			"target":34962
		},
		{
			"buffer":0,
			"byteLength":48,
			"byteOffset":5204,
			"target":34962
		},
		{
			"buffer":0,
			"byteLength":48,
			"byteOffset":5252,
			"target":34962
		},
		{
			"buffer":0,
			"byteLength":32,
			"byteOffset":5300,
			"target":34962
		},
		{
			"buffer":0,
			"byteLength":48,
			"byteOffset":5332,
			"target":34962
		},
		{
			"buffer":0,
			"byteLength":48,
			"byteOffset":5380,
			"target":34962
		},
		{
			"buffer":0,
			"byteLength":32,
			"byteOffset":5428,
			"target":34962
		},
		{
			"buffer":0,
			"byteLength":48,
			"byteOffset":5460,
			"target":34962
		},
		{
			"buffer":0,
			"byteLength":48,
			"byteOffset":5508,
			"target":34962
		},
		{
			"buffer":0,
			"byteLength":32,
			"byteOffset":5556,
			"target":34962
		},
		{
			"buffer":0,
			"byteLength":48,
			"byteOffset":5588,
			"target":34962
		},
		{
			"buffer":0,
			"byteLength":48,
			"byteOffset":5636,
			"target":34962
		},
		{
			"buffer":0,
			"byteLength":32,
			"byteOffset":5684,
			"target":34962
		},
		{
			"buffer":0,
			"byteLength":48,
			"byteOffset":5716,
			"target":34962
		},
		{
			"buffer":0,
			"byteLength":48,
			"byteOffset":5764,
			"target":34962
		},
		{
			"buffer":0,
			"byteLength":32,
			"byteOffset":5812,
			"target":34962
		},
		{
			"buffer":0,
			"byteLength":960,
			"byteOffset":5844,
			"target":34962
		},
		{
			"buffer":0,
			"byteLength":960,
			"byteOffset":6804,
			"target":34962
		},
		{
			"buffer":0,
			"byteLength":640,
			"byteOffset":7764,
			"target":34962
		},
		{
			"buffer":0,
			"byteLength":240,
			"byteOffset":8404,
			"target":34963
		},
		{
			"buffer":0,
			"byteLength":960,
			"byteOffset":8644,
			"target":34962
		},
		{
			"buffer":0,
			"byteLength":960,
			"byteOffset":9604,
			"target":34962
		},
		{
			"buffer":0,
			"byteLength":640,
			"byteOffset":10564,
			"target":34962
		},
		{
			"buffer":0,
			"byteLength":240,
			"byteOffset":11204,
			"target":34963
		},
		{
			"buffer":0,
			"byteLength":468,
			"byteOffset":11444,
			"target":34962
		},
		{
			"buffer":0,
			"byteLength":468,
			"byteOffset":11912,
			"target":34962
		},
		{
			"buffer":0,
			"byteLength":312,
			"byteOffset":12380,
			"target":34962
		},
		{
			"buffer":0,
			"byteLength":120,
			"byteOffset":12692,
			"target":34963
		},
		{
			"buffer":0,
			"byteLength":468,
			"byteOffset":12812,
			"target":34962
		},
		{
			"buffer":0,
			"byteLength":468,
			"byteOffset":13280,
			"target":34962
		},
		{
			"buffer":0,
			"byteLength":312,
			"byteOffset":13748,
			"target":34962
		},
		{
			"buffer":0,
			"byteLength":120,
			"byteOffset":14060,
			"target":34963
		},
		{
			"buffer":0,
			"byteLength":144,
			"byteOffset":14180,
			"target":34962
		},
		{
			"buffer":0,
			"byteLength":144,
			"byteOffset":14324,
			"target":34962
		},
		{
			"buffer":0,
			"byteLength":96,
			"byteOffset":14468,
			"target":34962
		},
		{
			"buffer":0,
			"byteLength":36,
			"byteOffset":14564,
			"target":34963
		}
	],
	"samplers":[
		{
			"magFilter":9729,
			"minFilter":9987
		}
	],
	"buffers":[
		{
			"byteLength":14600,
			"uri":"MeshesToSpawn.bin"
		}
	]
}
