{
	"asset":{
		"generator":"Khronos glTF Blender I/O v5.0.21",
		"version":"2.0"
	},
	"extensionsUsed":[
		"KHR_lights_punctual"
	],
	"extensionsRequired":[
		"KHR_lights_punctual"
	],
	"extensions":{
		"KHR_lights_punctual":{
			"lights":[
				{
					"color":[
						0,
						1,
						0.2831519842147827
					],
					"intensity":271.7570653294113,
					"spot":{
						"innerConeAngle":0.10908307880163193,
						"outerConeAngle":0.4363323152065277
					},
					"type":"spot",
					"name":"Spot.002"
				},
				{
					"color":[
						1,
						0.05087645351886749,
						0.4479818344116211
					],
					"intensity":543.5141306588226,
					"spot":{
						"innerConeAngle":0.10908307880163193,
						"outerConeAngle":0.4363323152065277
					},
					"type":"spot",
					"name":"Spot.003"
				},
				{
					"color":[
						0,
						1,
						0.2831519842147827
					],
					"intensity":271.7570653294113,
					"spot":{
						"innerConeAngle":0.10908307880163193,
						"outerConeAngle":0.4363323152065277
					},
					"type":"spot",
					"name":"Spot.005"
				},
				{
					"color":[
						1,
						0.05087599903345108,
						0.4479820132255554
					],
					"intensity":543.5141306588226,
					"spot":{
						"innerConeAngle":0.10908307880163193,
						"outerConeAngle":0.4363323152065277
					},
					"type":"spot",
					"name":"Spot.006"
				},
				{
					"color":[
						0,
						1,
						0.2831488251686096
					],
					"intensity":384.32252745956475,
					"spot":{
						"innerConeAngle":0.10908307880163193,
						"outerConeAngle":0.4363323152065277
					},
					"type":"spot",
					"name":"Spot.009"
				},
				{
					"color":[
						1,
						0.05087599903345108,
						0.4479820132255554
					],
					"intensity":153.72901098382587,
					"spot":{
						"innerConeAngle":0.10908307880163193,
						"outerConeAngle":0.4363323152065277
					},
					"type":"spot",
					"name":"Spot.010"
				}
			]
		}
	},
	"scene":0,
	"scenes":[
		{
			"name":"Scene",
			"nodes":[
				0,
				1,
				2,
				3,
				4,
				5,
				6,
				7,
				8,
				9,
				10,
				11,
				12,
				13,
				14,
				15,
				16
			]
		}
	],
	"nodes":[
		{
			"mesh":0,
			"name":"BgTentBlue",
			"rotation":[
				0.7071068286895752,
				0,
				0,
				0.7071068286895752
			],
			"scale":[
				2,
				2,
				2
			],
			"translation":[
				-15.178836822509766,
				-2.999999761581421,
				-3.0379762649536133
			]
		},
		{
			"mesh":1,
			"name":"ArrBushes.001",
			"rotation":[
				0.7071068286895752,
				0,
				0,
				0.7071068286895752
			],
			"translation":[
				-12.440332412719727,
				-2.066293478012085,
				-1.2653913497924805
			]
		},
		{
			"mesh":2,
			"name":"CurtainTop",
			"rotation":[
				0.7071068286895752,
				0,
				0,
				0.7071068286895752
			],
			"translation":[
				-6.411965370178223,
				0.8876990079879761,
				5.241659641265869
			]
		},
		{
			"mesh":3,
			"name":"BgTentRed",
			"rotation":[
				0.7071068286895752,
				0,
				0,
				0.7071068286895752
			],
			"scale":[
				2,
				2,
				2
			],
			"translation":[
				-15.178836822509766,
				-2.999999761581421,
				-3.8465871810913086
			]
		},
		{
			"mesh":4,
			"name":"BgTentGreen",
			"rotation":[
				0.7071068286895752,
				0,
				0,
				0.7071068286895752
			],
			"scale":[
				2,
				2,
				2
			],
			"translation":[
				-15.178836822509766,
				-2.999999761581421,
				-4.432277679443359
			]
		},
		{
			"mesh":5,
			"name":"BgWoodWall",
			"rotation":[
				0.7071068286895752,
				0,
				0,
				0.7071068286895752
			],
			"scale":[
				2,
				2,
				2
			],
			"translation":[
				-15.178838729858398,
				-2.999999761581421,
				-5
			]
		},
		{
			"mesh":6,
			"name":"CurtainLeft",
			"rotation":[
				0,
				-0.13052621483802795,
				0,
				0.9914448857307434
			],
			"scale":[
				0.6425840258598328,
				0.6425844430923462,
				0.642584502696991
			],
			"translation":[
				-2.454197883605957,
				0.13936759531497955,
				4.807662010192871
			]
		},
		{
			"mesh":7,
			"name":"CurtainRight",
			"rotation":[
				0,
				-0.9914448857307434,
				0,
				0.13052621483802795
			],
			"scale":[
				0.6425840258598328,
				0.6425844430923462,
				0.642584502696991
			],
			"translation":[
				2.402268886566162,
				0.13936759531497955,
				4.864270210266113
			]
		},
		{
			"mesh":8,
			"name":"Plane",
			"rotation":[
				0.5,
				-0.5,
				-0.5,
				0.5000000596046448
			],
			"translation":[
				-9.522706985473633,
				-2.6016342639923096,
				4.456234455108643
			]
		},
		{
			"camera":0,
			"name":"Camera",
			"scale":[
				23.09109115600586,
				23.091089248657227,
				23.091089248657227
			],
			"translation":[
				0,
				0,
				7.859433174133301
			]
		},
		{
			"mesh":9,
			"name":"ArrBushes.002",
			"rotation":[
				0.7071068286895752,
				0,
				0,
				0.7071068286895752
			],
			"translation":[
				-12.440332412719727,
				-2.740985870361328,
				3.438107490539551
			]
		},
		{
			"extensions":{
				"KHR_lights_punctual":{
					"light":0
				}
			},
			"name":"lightRight.002",
			"rotation":[
				-0.25027140974998474,
				-0.10265771299600601,
				-0.699985682964325,
				0.6609430313110352
			],
			"translation":[
				5.541299819946289,
				5.137617588043213,
				5.417433738708496
			]
		},
		{
			"extensions":{
				"KHR_lights_punctual":{
					"light":1
				}
			},
			"name":"lightRight.001",
			"rotation":[
				-0.3680204749107361,
				0.013673475943505764,
				-0.6458921432495117,
				0.6687281727790833
			],
			"translation":[
				4.310689449310303,
				3.82968807220459,
				6.786652088165283
			]
		},
		{
			"extensions":{
				"KHR_lights_punctual":{
					"light":2
				}
			},
			"name":"lightLeft.001",
			"rotation":[
				0.00248631089925766,
				-0.34772568941116333,
				-0.6525025963783264,
				0.6732912063598633
			],
			"translation":[
				-4.200455188751221,
				3.82968807220459,
				6.786651611328125
			]
		},
		{
			"extensions":{
				"KHR_lights_punctual":{
					"light":3
				}
			},
			"name":"lightLeft.002",
			"rotation":[
				-0.11085733771324158,
				-0.22552718222141266,
				-0.6430214047431946,
				0.7234442830085754
			],
			"translation":[
				-5.519829750061035,
				5.137617111206055,
				5.4174323081970215
			]
		},
		{
			"extensions":{
				"KHR_lights_punctual":{
					"light":4
				}
			},
			"name":"lightRight.004",
			"rotation":[
				-0.1259823739528656,
				0.13264788687229156,
				-0.6638616919517517,
				0.7251349091529846
			],
			"translation":[
				3.0999999046325684,
				0.04566099867224693,
				10
			]
		},
		{
			"extensions":{
				"KHR_lights_punctual":{
					"light":5
				}
			},
			"name":"lightLeft.004",
			"rotation":[
				0.11806795746088028,
				-0.12060604244470596,
				-0.7007460594177246,
				0.6931588053703308
			],
			"translation":[
				-3.0999999046325684,
				0.04566099867224693,
				10
			]
		}
	],
	"cameras":[
		{
			"name":"Camera",
			"perspective":{
				"aspectRatio":1.7777777777777777,
				"yfov":0.8149313109412556,
				"zfar":100,
				"znear":0.10000000149011612
			},
			"type":"perspective"
		}
	],
	"materials":[
		{
			"alphaMode":"BLEND",
			"doubleSided":true,
			"name":"M_Stall",
			"pbrMetallicRoughness":{
				"baseColorTexture":{
					"index":0
				},
				"metallicFactor":0
			}
		}
	],
	"meshes":[
		{
			"name":"Plane.001",
			"primitives":[
				{
					"attributes":{
						"POSITION":0,
						"NORMAL":1,
						"TEXCOORD_0":2,
						"COLOR_0":3,
						"COLOR_1":4
					},
					"indices":5,
					"material":0
				}
			]
		},
		{
			"name":"Plane.007",
			"primitives":[
				{
					"attributes":{
						"POSITION":6,
						"NORMAL":7,
						"TEXCOORD_0":8
					},
					"indices":9,
					"material":0
				}
			]
		},
		{
			"name":"Plane.008",
			"primitives":[
				{
					"attributes":{
						"POSITION":10,
						"NORMAL":11,
						"TEXCOORD_0":12
					},
					"indices":13,
					"material":0
				}
			]
		},
		{
			"name":"Plane.009",
			"primitives":[
				{
					"attributes":{
						"POSITION":14,
						"NORMAL":15,
						"TEXCOORD_0":16,
						"COLOR_0":17,
						"COLOR_1":18
					},
					"indices":5,
					"material":0
				}
			]
		},
		{
			"name":"Plane.010",
			"primitives":[
				{
					"attributes":{
						"POSITION":19,
						"NORMAL":20,
						"TEXCOORD_0":21,
						"COLOR_0":22,
						"COLOR_1":23
					},
					"indices":5,
					"material":0
				}
			]
		},
		{
			"name":"Plane.011",
			"primitives":[
				{
					"attributes":{
						"POSITION":24,
						"NORMAL":25,
						"TEXCOORD_0":26,
						"COLOR_0":27,
						"COLOR_1":28
					},
					"indices":5,
					"material":0
				}
			]
		},
		{
			"name":"Plane.012",
			"primitives":[
				{
					"attributes":{
						"POSITION":29,
						"NORMAL":30,
						"TEXCOORD_0":31
					},
					"indices":32,
					"material":0
				}
			]
		},
		{
			"name":"Plane.014",
			"primitives":[
				{
					"attributes":{
						"POSITION":33,
						"NORMAL":34,
						"TEXCOORD_0":35
					},
					"indices":36,
					"material":0
				}
			]
		},
		{
			"name":"Plane.005",
			"primitives":[
				{
					"attributes":{
						"POSITION":37,
						"NORMAL":38,
						"TEXCOORD_0":39
					},
					"indices":40,
					"material":0
				}
			]
		},
		{
			"name":"Plane.101",
			"primitives":[
				{
					"attributes":{
						"POSITION":41,
						"NORMAL":42,
						"TEXCOORD_0":43
					},
					"indices":9,
					"material":0
				}
			]
		}
	],
	"textures":[
		{
			"sampler":0,
			"source":0
		}
	],
	"images":[
		{
			"mimeType":"image/png",
			"name":"spritesheet_stall",
			"uri":"spritesheet_stall.png"
		}
	],
	"accessors":[
		{
			"bufferView":0,
			"componentType":5126,
			"count":120,
			"max":[
				18,
				-8.742277657347586e-08,
				3.82137093032941e-15
			],
			"min":[
				-2,
				-8.742277657347586e-08,
				-6
			],
			"type":"VEC3"
		},
		{
			"bufferView":1,
			"componentType":5126,
			"count":120,
			"type":"VEC3"
		},
		{
			"bufferView":2,
			"componentType":5126,
			"count":120,
			"type":"VEC2"
		},
		{
			"bufferView":3,
			"componentType":5121,
			"count":120,
			"normalized":true,
			"type":"VEC4"
		},
		{
			"bufferView":4,
			"componentType":5123,
			"count":120,
			"normalized":true,
			"type":"VEC4"
		},
		{
			"bufferView":5,
			"componentType":5123,
			"count":180,
			"type":"SCALAR"
		},
		{
			"bufferView":6,
			"componentType":5126,
			"count":80,
			"max":[
				26.005107879638672,
				1.4564740524747322e-08,
				1
			],
			"min":[
				-0.6667976379394531,
				-2.6468054414863218e-08,
				-1.2723160982131958
			],
			"type":"VEC3"
		},
		{
			"bufferView":7,
			"componentType":5126,
			"count":80,
			"type":"VEC3"
		},
		{
			"bufferView":8,
			"componentType":5126,
			"count":80,
			"type":"VEC2"
		},
		{
			"bufferView":9,
			"componentType":5123,
			"count":120,
			"type":"SCALAR"
		},
		{
			"bufferView":10,
			"componentType":5126,
			"count":56,
			"max":[
				13,
				0.816344678401947,
				0.2971683442592621
			],
			"min":[
				-1,
				-3.072174692420049e-08,
				-1.4348013401031494
			],
			"type":"VEC3"
		},
		{
			"bufferView":11,
			"componentType":5126,
			"count":56,
			"type":"VEC3"
		},
		{
			"bufferView":12,
			"componentType":5126,
			"count":56,
			"type":"VEC2"
		},
		{
			"bufferView":13,
			"componentType":5123,
			"count":84,
			"type":"SCALAR"
		},
		{
			"bufferView":14,
			"componentType":5126,
			"count":120,
			"max":[
				18,
				-8.742277657347586e-08,
				3.82137093032941e-15
			],
			"min":[
				-2,
				-8.742277657347586e-08,
				-6
			],
			"type":"VEC3"
		},
		{
			"bufferView":15,
			"componentType":5126,
			"count":120,
			"type":"VEC3"
		},
		{
			"bufferView":16,
			"componentType":5126,
			"count":120,
			"type":"VEC2"
		},
		{
			"bufferView":17,
			"componentType":5121,
			"count":120,
			"normalized":true,
			"type":"VEC4"
		},
		{
			"bufferView":18,
			"componentType":5123,
			"count":120,
			"normalized":true,
			"type":"VEC4"
		},
		{
			"bufferView":19,
			"componentType":5126,
			"count":120,
			"max":[
				18,
				-8.742277657347586e-08,
				3.82137093032941e-15
			],
			"min":[
				-2,
				-8.742277657347586e-08,
				-6
			],
			"type":"VEC3"
		},
		{
			"bufferView":20,
			"componentType":5126,
			"count":120,
			"type":"VEC3"
		},
		{
			"bufferView":21,
			"componentType":5126,
			"count":120,
			"type":"VEC2"
		},
		{
			"bufferView":22,
			"componentType":5121,
			"count":120,
			"normalized":true,
			"type":"VEC4"
		},
		{
			"bufferView":23,
			"componentType":5123,
			"count":120,
			"normalized":true,
			"type":"VEC4"
		},
		{
			"bufferView":24,
			"componentType":5126,
			"count":120,
			"max":[
				18,
				-8.742277657347586e-08,
				3.82137093032941e-15
			],
			"min":[
				-2,
				-8.742277657347586e-08,
				-6
			],
			"type":"VEC3"
		},
		{
			"bufferView":25,
			"componentType":5126,
			"count":120,
			"type":"VEC3"
		},
		{
			"bufferView":26,
			"componentType":5126,
			"count":120,
			"type":"VEC2"
		},
		{
			"bufferView":27,
			"componentType":5121,
			"count":120,
			"normalized":true,
			"type":"VEC4"
		},
		{
			"bufferView":28,
			"componentType":5123,
			"count":120,
			"normalized":true,
			"type":"VEC4"
		},
		{
			"bufferView":29,
			"componentType":5126,
			"count":8,
			"max":[
				0.010746421292424202,
				1.808343768119812,
				0.6513994932174683
			],
			"min":[
				-0.0036076605319976807,
				-1.7515918016433716,
				-0.6197210550308228
			],
			"type":"VEC3"
		},
		{
			"bufferView":30,
			"componentType":5126,
			"count":8,
			"type":"VEC3"
		},
		{
			"bufferView":31,
			"componentType":5126,
			"count":8,
			"type":"VEC2"
		},
		{
			"bufferView":32,
			"componentType":5123,
			"count":12,
			"type":"SCALAR"
		},
		{
			"bufferView":33,
			"componentType":5126,
			"count":8,
			"max":[
				0.010746384970843792,
				1.808343768119812,
				0.6296583414077759
			],
			"min":[
				-0.0036076605319976807,
				-1.7515918016433716,
				-0.6415203213691711
			],
			"type":"VEC3"
		},
		{
			"bufferView":34,
			"componentType":5126,
			"count":8,
			"type":"VEC3"
		},
		{
			"bufferView":35,
			"componentType":5126,
			"count":8,
			"type":"VEC2"
		},
		{
			"bufferView":36,
			"componentType":5123,
			"count":12,
			"type":"SCALAR"
		},
		{
			"bufferView":37,
			"componentType":5126,
			"count":24,
			"max":[
				1.3899362087249756,
				8.191283740188737e-08,
				1.765633225440979
			],
			"min":[
				-1.1130930185317993,
				-8.191283740188737e-08,
				-19.421964645385742
			],
			"type":"VEC3"
		},
		{
			"bufferView":38,
			"componentType":5126,
			"count":24,
			"type":"VEC3"
		},
		{
			"bufferView":39,
			"componentType":5126,
			"count":24,
			"type":"VEC2"
		},
		{
			"bufferView":40,
			"componentType":5123,
			"count":36,
			"type":"SCALAR"
		},
		{
			"bufferView":41,
			"componentType":5126,
			"count":80,
			"max":[
				26.005107879638672,
				1.4564740524747322e-08,
				1
			],
			"min":[
				-0.6667976379394531,
				-2.6468054414863218e-08,
				-1.2723160982131958
			],
			"type":"VEC3"
		},
		{
			"bufferView":42,
			"componentType":5126,
			"count":80,
			"type":"VEC3"
		},
		{
			"bufferView":43,
			"componentType":5126,
			"count":80,
			"type":"VEC2"
		}
	],
	"bufferViews":[
		{
			"buffer":0,
			"byteLength":1440,
			"byteOffset":0,
			"target":34962
		},
		{
			"buffer":0,
			"byteLength":1440,
			"byteOffset":1440,
			"target":34962
		},
		{
			"buffer":0,
			"byteLength":960,
			"byteOffset":2880,
			"target":34962
		},
		{
			"buffer":0,
			"byteLength":480,
			"byteOffset":3840,
			"target":34962
		},
		{
			"buffer":0,
			"byteLength":960,
			"byteOffset":4320,
			"target":34962
		},
		{
			"buffer":0,
			"byteLength":360,
			"byteOffset":5280,
			"target":34963
		},
		{
			"buffer":0,
			"byteLength":960,
			"byteOffset":5640,
			"target":34962
		},
		{
			"buffer":0,
			"byteLength":960,
			"byteOffset":6600,
			"target":34962
		},
		{
			"buffer":0,
			"byteLength":640,
			"byteOffset":7560,
			"target":34962
		},
		{
			"buffer":0,
			"byteLength":240,
			"byteOffset":8200,
			"target":34963
		},
		{
			"buffer":0,
			"byteLength":672,
			"byteOffset":8440,
			"target":34962
		},
		{
			"buffer":0,
			"byteLength":672,
			"byteOffset":9112,
			"target":34962
		},
		{
			"buffer":0,
			"byteLength":448,
			"byteOffset":9784,
			"target":34962
		},
		{
			"buffer":0,
			"byteLength":168,
			"byteOffset":10232,
			"target":34963
		},
		{
			"buffer":0,
			"byteLength":1440,
			"byteOffset":10400,
			"target":34962
		},
		{
			"buffer":0,
			"byteLength":1440,
			"byteOffset":11840,
			"target":34962
		},
		{
			"buffer":0,
			"byteLength":960,
			"byteOffset":13280,
			"target":34962
		},
		{
			"buffer":0,
			"byteLength":480,
			"byteOffset":14240,
			"target":34962
		},
		{
			"buffer":0,
			"byteLength":960,
			"byteOffset":14720,
			"target":34962
		},
		{
			"buffer":0,
			"byteLength":1440,
			"byteOffset":15680,
			"target":34962
		},
		{
			"buffer":0,
			"byteLength":1440,
			"byteOffset":17120,
			"target":34962
		},
		{
			"buffer":0,
			"byteLength":960,
			"byteOffset":18560,
			"target":34962
		},
		{
			"buffer":0,
			"byteLength":480,
			"byteOffset":19520,
			"target":34962
		},
		{
			"buffer":0,
			"byteLength":960,
			"byteOffset":20000,
			"target":34962
		},
		{
			"buffer":0,
			"byteLength":1440,
			"byteOffset":20960,
			"target":34962
		},
		{
			"buffer":0,
			"byteLength":1440,
			"byteOffset":22400,
			"target":34962
		},
		{
			"buffer":0,
			"byteLength":960,
			"byteOffset":23840,
			"target":34962
		},
		{
			"buffer":0,
			"byteLength":480,
			"byteOffset":24800,
			"target":34962
		},
		{
			"buffer":0,
			"byteLength":960,
			"byteOffset":25280,
			"target":34962
		},
		{
			"buffer":0,
			"byteLength":96,
			"byteOffset":26240,
			"target":34962
		},
		{
			"buffer":0,
			"byteLength":96,
			"byteOffset":26336,
			"target":34962
		},
		{
			"buffer":0,
			"byteLength":64,
			"byteOffset":26432,
			"target":34962
		},
		{
			"buffer":0,
			"byteLength":24,
			"byteOffset":26496,
			"target":34963
		},
		{
			"buffer":0,
			"byteLength":96,
			"byteOffset":26520,
			"target":34962
		},
		{
			"buffer":0,
			"byteLength":96,
			"byteOffset":26616,
			"target":34962
		},
		{
			"buffer":0,
			"byteLength":64,
			"byteOffset":26712,
			"target":34962
		},
		{
			"buffer":0,
			"byteLength":24,
			"byteOffset":26776,
			"target":34963
		},
		{
			"buffer":0,
			"byteLength":288,
			"byteOffset":26800,
			"target":34962
		},
		{
			"buffer":0,
			"byteLength":288,
			"byteOffset":27088,
			"target":34962
		},
		{
			"buffer":0,
			"byteLength":192,
			"byteOffset":27376,
			"target":34962
		},
		{
			"buffer":0,
			"byteLength":72,
			"byteOffset":27568,
			"target":34963
		},
		{
			"buffer":0,
			"byteLength":960,
			"byteOffset":27640,
			"target":34962
		},
		{
			"buffer":0,
			"byteLength":960,
			"byteOffset":28600,
			"target":34962
		},
		{
			"buffer":0,
			"byteLength":640,
			"byteOffset":29560,
			"target":34962
		}
	],
	"samplers":[
		{
			"magFilter":9729,
			"minFilter":9987
		}
	],
	"buffers":[
		{
			"byteLength":30200,
			"uri":"sceneStall.bin"
		}
	]
}
