{
	"asset":{
		"generator":"Khronos glTF Blender I/O v5.0.21",
		"version":"2.0"
	},
	"extensionsUsed":[
		"KHR_lights_punctual"
	],
	"extensionsRequired":[
		"KHR_lights_punctual"
	],
	"extensions":{
		"KHR_lights_punctual":{
			"lights":[
				{
					"color":[
						1,
						0.31855452060699463,
						0.47583407163619995
					],
					"intensity":5435.141306588225,
					"spot":{
						"innerConeAngle":0.1636246144771576,
						"outerConeAngle":0.6544984579086304
					},
					"type":"spot",
					"name":"Spot.001"
				},
				{
					"color":[
						0,
						1,
						0.2831519842147827
					],
					"intensity":16305.423919764677,
					"spot":{
						"innerConeAngle":0.10908307880163193,
						"outerConeAngle":0.4363323152065277
					},
					"type":"spot",
					"name":"Spot.002"
				},
				{
					"color":[
						1,
						0.05087645351886749,
						0.4479818344116211
					],
					"intensity":16305.423919764677,
					"spot":{
						"innerConeAngle":0.10908307880163193,
						"outerConeAngle":0.4363323152065277
					},
					"type":"spot",
					"name":"Spot.003"
				},
				{
					"color":[
						1,
						0.31855452060699463,
						0.47583407163619995
					],
					"intensity":5435.141306588225,
					"spot":{
						"innerConeAngle":0.1636246144771576,
						"outerConeAngle":0.6544984579086304
					},
					"type":"spot",
					"name":"Spot.004"
				},
				{
					"color":[
						0,
						1,
						0.2831519842147827
					],
					"intensity":16305.423919764677,
					"spot":{
						"innerConeAngle":0.10908307880163193,
						"outerConeAngle":0.4363323152065277
					},
					"type":"spot",
					"name":"Spot.005"
				},
				{
					"color":[
						1,
						0.05087599903345108,
						0.4479820132255554
					],
					"intensity":16305.423919764677,
					"spot":{
						"innerConeAngle":0.10908307880163193,
						"outerConeAngle":0.4363323152065277
					},
					"type":"spot",
					"name":"Spot.006"
				}
			]
		}
	},
	"scene":0,
	"scenes":[
		{
			"name":"Scene",
			"nodes":[
				0,
				1,
				2,
				3,
				4,
				5,
				6,
				7,
				8,
				9,
				10,
				11,
				12,
				13,
				14,
				15,
				16,
				17,
				18,
				19,
				20,
				21
			]
		}
	],
	"nodes":[
		{
			"mesh":0,
			"name":"BgTentBlue",
			"rotation":[
				0.7071068286895752,
				0,
				0,
				0.7071068286895752
			],
			"scale":[
				2,
				2,
				2
			],
			"translation":[
				-8.178836822509766,
				-2.999999761581421,
				-3.0379762649536133
			]
		},
		{
			"mesh":1,
			"name":"ArrBushes.001",
			"rotation":[
				0.7071068286895752,
				0,
				0,
				0.7071068286895752
			],
			"translation":[
				-12.440332412719727,
				-2.066293478012085,
				-1.2653913497924805
			]
		},
		{
			"mesh":2,
			"name":"CurtainTop",
			"rotation":[
				0.7071068286895752,
				0,
				0,
				0.7071068286895752
			],
			"translation":[
				-6.411965370178223,
				0.8876990079879761,
				5.241659641265869
			]
		},
		{
			"mesh":3,
			"name":"BgTentRed",
			"rotation":[
				0.7071068286895752,
				0,
				0,
				0.7071068286895752
			],
			"scale":[
				2,
				2,
				2
			],
			"translation":[
				-8.178836822509766,
				-2.999999761581421,
				-3.8465871810913086
			]
		},
		{
			"mesh":4,
			"name":"BgTentGreen",
			"rotation":[
				0.7071068286895752,
				0,
				0,
				0.7071068286895752
			],
			"scale":[
				2,
				2,
				2
			],
			"translation":[
				-8.178836822509766,
				-2.999999761581421,
				-4.432277679443359
			]
		},
		{
			"mesh":5,
			"name":"BgWoodWall",
			"rotation":[
				0.7071068286895752,
				0,
				0,
				0.7071068286895752
			],
			"scale":[
				2,
				2,
				2
			],
			"translation":[
				-8.178838729858398,
				-2.999999761581421,
				-5
			]
		},
		{
			"mesh":6,
			"name":"CurtainLeft",
			"rotation":[
				0,
				-0.13052621483802795,
				0,
				0.9914448857307434
			],
			"scale":[
				0.6425840258598328,
				0.6425844430923462,
				0.642584502696991
			],
			"translation":[
				-1.954197883605957,
				0.13936759531497955,
				4.807662010192871
			]
		},
		{
			"mesh":7,
			"name":"CurtainRight",
			"rotation":[
				0,
				-0.9914448857307434,
				0,
				0.13052621483802795
			],
			"scale":[
				0.6425840258598328,
				0.6425844430923462,
				0.642584502696991
			],
			"translation":[
				1.902268886566162,
				0.13936759531497955,
				4.864270210266113
			]
		},
		{
			"mesh":8,
			"name":"Tree.001",
			"rotation":[
				0,
				-0.7071068286895752,
				0,
				0.7071068286895752
			],
			"translation":[
				-5.667841911315918,
				-0.0808052271604538,
				-1.6524181365966797
			]
		},
		{
			"mesh":9,
			"name":"Tree.002",
			"rotation":[
				0,
				-0.7071068286895752,
				0,
				0.7071068286895752
			],
			"translation":[
				4.599700927734375,
				0.1936325579881668,
				-1.6524176597595215
			]
		},
		{
			"mesh":10,
			"name":"Tree.003",
			"rotation":[
				0,
				-0.7071068286895752,
				0,
				0.7071068286895752
			],
			"translation":[
				-2.155984401702881,
				0.22069211304187775,
				-1.4620342254638672
			]
		},
		{
			"mesh":11,
			"name":"Tree.004",
			"rotation":[
				0,
				-0.7071068286895752,
				0,
				0.7071068286895752
			],
			"translation":[
				2.0416932106018066,
				-0.6832869648933411,
				-0.7049226760864258
			]
		},
		{
			"mesh":12,
			"name":"Plane",
			"rotation":[
				0.5,
				-0.5,
				-0.5,
				0.5000000596046448
			],
			"translation":[
				-6.155516624450684,
				-1.690099835395813,
				4.456234455108643
			]
		},
		{
			"camera":0,
			"name":"Camera",
			"scale":[
				23.09109115600586,
				23.091089248657227,
				23.091089248657227
			],
			"translation":[
				0,
				0,
				7.859433174133301
			]
		},
		{
			"extensions":{
				"KHR_lights_punctual":{
					"light":0
				}
			},
			"name":"Spot.001",
			"rotation":[
				0.1108938604593277,
				-0.5972292423248291,
				-0.7808988690376282,
				0.1456597000360489
			],
			"translation":[
				-1.8551344871520996,
				1.1260074377059937,
				5.2149553298950195
			]
		},
		{
			"extensions":{
				"KHR_lights_punctual":{
					"light":1
				}
			},
			"name":"Spot.002",
			"rotation":[
				-0.3680204749107361,
				0.013673475943505764,
				-0.6458921432495117,
				0.6687281727790833
			],
			"translation":[
				6.819072246551514,
				3.875692367553711,
				6.102916717529297
			]
		},
		{
			"extensions":{
				"KHR_lights_punctual":{
					"light":2
				}
			},
			"name":"Spot.003",
			"rotation":[
				-0.3680204749107361,
				0.013673475943505764,
				-0.6458921432495117,
				0.6687281727790833
			],
			"translation":[
				4.310689449310303,
				3.875692367553711,
				7.576755523681641
			]
		},
		{
			"extensions":{
				"KHR_lights_punctual":{
					"light":3
				}
			},
			"name":"Spot.004",
			"rotation":[
				-0.47376519441604614,
				-0.3193078637123108,
				-0.6305926442146301,
				0.5253018140792847
			],
			"translation":[
				1.7359676361083984,
				1.1260074377059937,
				5.2149553298950195
			]
		},
		{
			"name":"Point",
			"rotation":[
				0,
				0,
				-0.7071068286895752,
				0.7071068286895752
			],
			"translation":[
				0,
				0.13445499539375305,
				4.20341682434082
			]
		},
		{
			"extensions":{
				"KHR_lights_punctual":{
					"light":4
				}
			},
			"name":"Spot.005",
			"rotation":[
				0.00248631089925766,
				-0.34772568941116333,
				-0.6525025963783264,
				0.6732912063598633
			],
			"translation":[
				-4.200455188751221,
				3.875692367553711,
				7.576755046844482
			]
		},
		{
			"extensions":{
				"KHR_lights_punctual":{
					"light":5
				}
			},
			"name":"Spot.006",
			"rotation":[
				0.00248631089925766,
				-0.34772568941116333,
				-0.6525025963783264,
				0.6732912063598633
			],
			"translation":[
				-6.797602653503418,
				3.875692367553711,
				6.102915287017822
			]
		},
		{
			"name":"Point.001",
			"rotation":[
				0,
				0,
				-0.7071068286895752,
				0.7071068286895752
			],
			"translation":[
				0,
				0,
				9.16593074798584
			]
		}
	],
	"cameras":[
		{
			"name":"Camera",
			"perspective":{
				"aspectRatio":1.7777777777777777,
				"yfov":0.8149313109412556,
				"zfar":100,
				"znear":0.10000000149011612
			},
			"type":"perspective"
		}
	],
	"materials":[
		{
			"alphaMode":"BLEND",
			"doubleSided":true,
			"name":"M_Stall",
			"pbrMetallicRoughness":{
				"baseColorTexture":{
					"index":0
				},
				"metallicFactor":0
			}
		}
	],
	"meshes":[
		{
			"name":"Plane.001",
			"primitives":[
				{
					"attributes":{
						"POSITION":0,
						"NORMAL":1,
						"TEXCOORD_0":2,
						"COLOR_0":3,
						"COLOR_1":4
					},
					"indices":5,
					"material":0
				}
			]
		},
		{
			"name":"Plane.007",
			"primitives":[
				{
					"attributes":{
						"POSITION":6,
						"NORMAL":7,
						"TEXCOORD_0":8
					},
					"indices":9,
					"material":0
				}
			]
		},
		{
			"name":"Plane.008",
			"primitives":[
				{
					"attributes":{
						"POSITION":10,
						"NORMAL":11,
						"TEXCOORD_0":12
					},
					"indices":13,
					"material":0
				}
			]
		},
		{
			"name":"Plane.009",
			"primitives":[
				{
					"attributes":{
						"POSITION":14,
						"NORMAL":15,
						"TEXCOORD_0":16,
						"COLOR_0":17,
						"COLOR_1":18
					},
					"indices":5,
					"material":0
				}
			]
		},
		{
			"name":"Plane.010",
			"primitives":[
				{
					"attributes":{
						"POSITION":19,
						"NORMAL":20,
						"TEXCOORD_0":21,
						"COLOR_0":22,
						"COLOR_1":23
					},
					"indices":5,
					"material":0
				}
			]
		},
		{
			"name":"Plane.011",
			"primitives":[
				{
					"attributes":{
						"POSITION":24,
						"NORMAL":25,
						"TEXCOORD_0":26,
						"COLOR_0":27,
						"COLOR_1":28
					},
					"indices":5,
					"material":0
				}
			]
		},
		{
			"name":"Plane.012",
			"primitives":[
				{
					"attributes":{
						"POSITION":29,
						"NORMAL":30,
						"TEXCOORD_0":31
					},
					"indices":32,
					"material":0
				}
			]
		},
		{
			"name":"Plane.014",
			"primitives":[
				{
					"attributes":{
						"POSITION":33,
						"NORMAL":34,
						"TEXCOORD_0":35
					},
					"indices":32,
					"material":0
				}
			]
		},
		{
			"name":"Plane.006",
			"primitives":[
				{
					"attributes":{
						"POSITION":36,
						"NORMAL":37,
						"TEXCOORD_0":38
					},
					"indices":39,
					"material":0
				}
			]
		},
		{
			"name":"Plane.020",
			"primitives":[
				{
					"attributes":{
						"POSITION":40,
						"NORMAL":41,
						"TEXCOORD_0":42
					},
					"indices":39,
					"material":0
				}
			]
		},
		{
			"name":"Plane.021",
			"primitives":[
				{
					"attributes":{
						"POSITION":43,
						"NORMAL":44,
						"TEXCOORD_0":45
					},
					"indices":39,
					"material":0
				}
			]
		},
		{
			"name":"Plane.022",
			"primitives":[
				{
					"attributes":{
						"POSITION":46,
						"NORMAL":47,
						"TEXCOORD_0":48
					},
					"indices":39,
					"material":0
				}
			]
		},
		{
			"name":"Plane.005",
			"primitives":[
				{
					"attributes":{
						"POSITION":49,
						"NORMAL":50,
						"TEXCOORD_0":51
					},
					"indices":52,
					"material":0
				}
			]
		}
	],
	"textures":[
		{
			"sampler":0,
			"source":0
		}
	],
	"images":[
		{
			"mimeType":"image/png",
			"name":"spritesheet_stall",
			"uri":"spritesheet_stall.png"
		}
	],
	"accessors":[
		{
			"bufferView":0,
			"componentType":5126,
			"count":48,
			"max":[
				10,
				-8.742277657347586e-08,
				3.82137093032941e-15
			],
			"min":[
				-2,
				-8.742277657347586e-08,
				-4
			],
			"type":"VEC3"
		},
		{
			"bufferView":1,
			"componentType":5126,
			"count":48,
			"type":"VEC3"
		},
		{
			"bufferView":2,
			"componentType":5126,
			"count":48,
			"type":"VEC2"
		},
		{
			"bufferView":3,
			"componentType":5121,
			"count":48,
			"normalized":true,
			"type":"VEC4"
		},
		{
			"bufferView":4,
			"componentType":5123,
			"count":48,
			"normalized":true,
			"type":"VEC4"
		},
		{
			"bufferView":5,
			"componentType":5123,
			"count":72,
			"type":"SCALAR"
		},
		{
			"bufferView":6,
			"componentType":5126,
			"count":80,
			"max":[
				26.005107879638672,
				1.4564740524747322e-08,
				1
			],
			"min":[
				-0.6667976379394531,
				-2.6468054414863218e-08,
				-1.2723160982131958
			],
			"type":"VEC3"
		},
		{
			"bufferView":7,
			"componentType":5126,
			"count":80,
			"type":"VEC3"
		},
		{
			"bufferView":8,
			"componentType":5126,
			"count":80,
			"type":"VEC2"
		},
		{
			"bufferView":9,
			"componentType":5123,
			"count":120,
			"type":"SCALAR"
		},
		{
			"bufferView":10,
			"componentType":5126,
			"count":28,
			"max":[
				13,
				3.072174692420049e-08,
				0.2971683442592621
			],
			"min":[
				-1,
				-3.072174692420049e-08,
				-0.2971683144569397
			],
			"type":"VEC3"
		},
		{
			"bufferView":11,
			"componentType":5126,
			"count":28,
			"type":"VEC3"
		},
		{
			"bufferView":12,
			"componentType":5126,
			"count":28,
			"type":"VEC2"
		},
		{
			"bufferView":13,
			"componentType":5123,
			"count":42,
			"type":"SCALAR"
		},
		{
			"bufferView":14,
			"componentType":5126,
			"count":48,
			"max":[
				10,
				-8.742277657347586e-08,
				3.82137093032941e-15
			],
			"min":[
				-2,
				-8.742277657347586e-08,
				-4
			],
			"type":"VEC3"
		},
		{
			"bufferView":15,
			"componentType":5126,
			"count":48,
			"type":"VEC3"
		},
		{
			"bufferView":16,
			"componentType":5126,
			"count":48,
			"type":"VEC2"
		},
		{
			"bufferView":17,
			"componentType":5121,
			"count":48,
			"normalized":true,
			"type":"VEC4"
		},
		{
			"bufferView":18,
			"componentType":5123,
			"count":48,
			"normalized":true,
			"type":"VEC4"
		},
		{
			"bufferView":19,
			"componentType":5126,
			"count":48,
			"max":[
				10,
				-8.742277657347586e-08,
				3.82137093032941e-15
			],
			"min":[
				-2,
				-8.742277657347586e-08,
				-4
			],
			"type":"VEC3"
		},
		{
			"bufferView":20,
			"componentType":5126,
			"count":48,
			"type":"VEC3"
		},
		{
			"bufferView":21,
			"componentType":5126,
			"count":48,
			"type":"VEC2"
		},
		{
			"bufferView":22,
			"componentType":5121,
			"count":48,
			"normalized":true,
			"type":"VEC4"
		},
		{
			"bufferView":23,
			"componentType":5123,
			"count":48,
			"normalized":true,
			"type":"VEC4"
		},
		{
			"bufferView":24,
			"componentType":5126,
			"count":48,
			"max":[
				10,
				-8.742277657347586e-08,
				3.82137093032941e-15
			],
			"min":[
				-2,
				-8.742277657347586e-08,
				-4
			],
			"type":"VEC3"
		},
		{
			"bufferView":25,
			"componentType":5126,
			"count":48,
			"type":"VEC3"
		},
		{
			"bufferView":26,
			"componentType":5126,
			"count":48,
			"type":"VEC2"
		},
		{
			"bufferView":27,
			"componentType":5121,
			"count":48,
			"normalized":true,
			"type":"VEC4"
		},
		{
			"bufferView":28,
			"componentType":5123,
			"count":48,
			"normalized":true,
			"type":"VEC4"
		},
		{
			"bufferView":29,
			"componentType":5126,
			"count":8,
			"max":[
				0.010746421292424202,
				1.808343768119812,
				0.6513994932174683
			],
			"min":[
				-0.0036076605319976807,
				-1.7515918016433716,
				-0.6197210550308228
			],
			"type":"VEC3"
		},
		{
			"bufferView":30,
			"componentType":5126,
			"count":8,
			"type":"VEC3"
		},
		{
			"bufferView":31,
			"componentType":5126,
			"count":8,
			"type":"VEC2"
		},
		{
			"bufferView":32,
			"componentType":5123,
			"count":12,
			"type":"SCALAR"
		},
		{
			"bufferView":33,
			"componentType":5126,
			"count":8,
			"max":[
				0.010746384970843792,
				1.808343768119812,
				0.6296583414077759
			],
			"min":[
				-0.0036076605319976807,
				-1.7515918016433716,
				-0.6415203213691711
			],
			"type":"VEC3"
		},
		{
			"bufferView":34,
			"componentType":5126,
			"count":8,
			"type":"VEC3"
		},
		{
			"bufferView":35,
			"componentType":5126,
			"count":8,
			"type":"VEC2"
		},
		{
			"bufferView":36,
			"componentType":5126,
			"count":4,
			"max":[
				1.0842016706646973e-07,
				1.4106794595718384,
				0.7231859564781189
			],
			"min":[
				-1.0842016706646973e-07,
				-1.4106794595718384,
				-0.7231859564781189
			],
			"type":"VEC3"
		},
		{
			"bufferView":37,
			"componentType":5126,
			"count":4,
			"type":"VEC3"
		},
		{
			"bufferView":38,
			"componentType":5126,
			"count":4,
			"type":"VEC2"
		},
		{
			"bufferView":39,
			"componentType":5123,
			"count":6,
			"type":"SCALAR"
		},
		{
			"bufferView":40,
			"componentType":5126,
			"count":4,
			"max":[
				1.0842016706646973e-07,
				1.4106794595718384,
				0.7231859564781189
			],
			"min":[
				-1.0842016706646973e-07,
				-1.4106794595718384,
				-0.7231859564781189
			],
			"type":"VEC3"
		},
		{
			"bufferView":41,
			"componentType":5126,
			"count":4,
			"type":"VEC3"
		},
		{
			"bufferView":42,
			"componentType":5126,
			"count":4,
			"type":"VEC2"
		},
		{
			"bufferView":43,
			"componentType":5126,
			"count":4,
			"max":[
				1.0842016706646973e-07,
				1.4106794595718384,
				0.7231859564781189
			],
			"min":[
				-1.0842016706646973e-07,
				-1.4106794595718384,
				-0.7231859564781189
			],
			"type":"VEC3"
		},
		{
			"bufferView":44,
			"componentType":5126,
			"count":4,
			"type":"VEC3"
		},
		{
			"bufferView":45,
			"componentType":5126,
			"count":4,
			"type":"VEC2"
		},
		{
			"bufferView":46,
			"componentType":5126,
			"count":4,
			"max":[
				1.0842016706646973e-07,
				1.4106794595718384,
				0.7231859564781189
			],
			"min":[
				-1.0842016706646973e-07,
				-1.4106794595718384,
				-0.7231859564781189
			],
			"type":"VEC3"
		},
		{
			"bufferView":47,
			"componentType":5126,
			"count":4,
			"type":"VEC3"
		},
		{
			"bufferView":48,
			"componentType":5126,
			"count":4,
			"type":"VEC2"
		},
		{
			"bufferView":49,
			"componentType":5126,
			"count":12,
			"max":[
				0.6744272112846375,
				2.458006065353402e-08,
				3.077254295349121
			],
			"min":[
				-0.6744272112846375,
				-2.458006065353402e-08,
				-15.386271476745605
			],
			"type":"VEC3"
		},
		{
			"bufferView":50,
			"componentType":5126,
			"count":12,
			"type":"VEC3"
		},
		{
			"bufferView":51,
			"componentType":5126,
			"count":12,
			"type":"VEC2"
		},
		{
			"bufferView":52,
			"componentType":5123,
			"count":18,
			"type":"SCALAR"
		}
	],
	"bufferViews":[
		{
			"buffer":0,
			"byteLength":576,
			"byteOffset":0,
			"target":34962
		},
		{
			"buffer":0,
			"byteLength":576,
			"byteOffset":576,
			"target":34962
		},
		{
			"buffer":0,
			"byteLength":384,
			"byteOffset":1152,
			"target":34962
		},
		{
			"buffer":0,
			"byteLength":192,
			"byteOffset":1536,
			"target":34962
		},
		{
			"buffer":0,
			"byteLength":384,
			"byteOffset":1728,
			"target":34962
		},
		{
			"buffer":0,
			"byteLength":144,
			"byteOffset":2112,
			"target":34963
		},
		{
			"buffer":0,
			"byteLength":960,
			"byteOffset":2256,
			"target":34962
		},
		{
			"buffer":0,
			"byteLength":960,
			"byteOffset":3216,
			"target":34962
		},
		{
			"buffer":0,
			"byteLength":640,
			"byteOffset":4176,
			"target":34962
		},
		{
			"buffer":0,
			"byteLength":240,
			"byteOffset":4816,
			"target":34963
		},
		{
			"buffer":0,
			"byteLength":336,
			"byteOffset":5056,
			"target":34962
		},
		{
			"buffer":0,
			"byteLength":336,
			"byteOffset":5392,
			"target":34962
		},
		{
			"buffer":0,
			"byteLength":224,
			"byteOffset":5728,
			"target":34962
		},
		{
			"buffer":0,
			"byteLength":84,
			"byteOffset":5952,
			"target":34963
		},
		{
			"buffer":0,
			"byteLength":576,
			"byteOffset":6036,
			"target":34962
		},
		{
			"buffer":0,
			"byteLength":576,
			"byteOffset":6612,
			"target":34962
		},
		{
			"buffer":0,
			"byteLength":384,
			"byteOffset":7188,
			"target":34962
		},
		{
			"buffer":0,
			"byteLength":192,
			"byteOffset":7572,
			"target":34962
		},
		{
			"buffer":0,
			"byteLength":384,
			"byteOffset":7764,
			"target":34962
		},
		{
			"buffer":0,
			"byteLength":576,
			"byteOffset":8148,
			"target":34962
		},
		{
			"buffer":0,
			"byteLength":576,
			"byteOffset":8724,
			"target":34962
		},
		{
			"buffer":0,
			"byteLength":384,
			"byteOffset":9300,
			"target":34962
		},
		{
			"buffer":0,
			"byteLength":192,
			"byteOffset":9684,
			"target":34962
		},
		{
			"buffer":0,
			"byteLength":384,
			"byteOffset":9876,
			"target":34962
		},
		{
			"buffer":0,
			"byteLength":576,
			"byteOffset":10260,
			"target":34962
		},
		{
			"buffer":0,
			"byteLength":576,
			"byteOffset":10836,
			"target":34962
		},
		{
			"buffer":0,
			"byteLength":384,
			"byteOffset":11412,
			"target":34962
		},
		{
			"buffer":0,
			"byteLength":192,
			"byteOffset":11796,
			"target":34962
		},
		{
			"buffer":0,
			"byteLength":384,
			"byteOffset":11988,
			"target":34962
		},
		{
			"buffer":0,
			"byteLength":96,
			"byteOffset":12372,
			"target":34962
		},
		{
			"buffer":0,
			"byteLength":96,
			"byteOffset":12468,
			"target":34962
		},
		{
			"buffer":0,
			"byteLength":64,
			"byteOffset":12564,
			"target":34962
		},
		{
			"buffer":0,
			"byteLength":24,
			"byteOffset":12628,
			"target":34963
		},
		{
			"buffer":0,
			"byteLength":96,
			"byteOffset":12652,
			"target":34962
		},
		{
			"buffer":0,
			"byteLength":96,
			"byteOffset":12748,
			"target":34962
		},
		{
			"buffer":0,
			"byteLength":64,
			"byteOffset":12844,
			"target":34962
		},
		{
			"buffer":0,
			"byteLength":48,
			"byteOffset":12908,
			"target":34962
		},
		{
			"buffer":0,
			"byteLength":48,
			"byteOffset":12956,
			"target":34962
		},
		{
			"buffer":0,
			"byteLength":32,
			"byteOffset":13004,
			"target":34962
		},
		{
			"buffer":0,
			"byteLength":12,
			"byteOffset":13036,
			"target":34963
		},
		{
			"buffer":0,
			"byteLength":48,
			"byteOffset":13048,
			"target":34962
		},
		{
			"buffer":0,
			"byteLength":48,
			"byteOffset":13096,
			"target":34962
		},
		{
			"buffer":0,
			"byteLength":32,
			"byteOffset":13144,
			"target":34962
		},
		{
			"buffer":0,
			"byteLength":48,
			"byteOffset":13176,
			"target":34962
		},
		{
			"buffer":0,
			"byteLength":48,
			"byteOffset":13224,
			"target":34962
		},
		{
			"buffer":0,
			"byteLength":32,
			"byteOffset":13272,
			"target":34962
		},
		{
			"buffer":0,
			"byteLength":48,
			"byteOffset":13304,
			"target":34962
		},
		{
			"buffer":0,
			"byteLength":48,
			"byteOffset":13352,
			"target":34962
		},
		{
			"buffer":0,
			"byteLength":32,
			"byteOffset":13400,
			"target":34962
		},
		{
			"buffer":0,
			"byteLength":144,
			"byteOffset":13432,
			"target":34962
		},
		{
			"buffer":0,
			"byteLength":144,
			"byteOffset":13576,
			"target":34962
		},
		{
			"buffer":0,
			"byteLength":96,
			"byteOffset":13720,
			"target":34962
		},
		{
			"buffer":0,
			"byteLength":36,
			"byteOffset":13816,
			"target":34963
		}
	],
	"samplers":[
		{
			"magFilter":9729,
			"minFilter":9987
		}
	],
	"buffers":[
		{
			"byteLength":13852,
			"uri":"Stall.bin"
		}
	]
}
